<svg width="270" height="270" viewBox="0 0 270 270" fill="none" xmlns="http://www.w3.org/2000/svg">
<mask id="mask0_194_10815" style="mask-type:luminance" maskUnits="userSpaceOnUse" x="0" y="0" width="270" height="270">
<path d="M134.65 269.31C209.015 269.31 269.3 209.025 269.3 134.66C269.3 60.2949 209.015 0.0100098 134.65 0.0100098C60.2849 0.0100098 0 60.2949 0 134.66C0 209.025 60.2849 269.31 134.65 269.31Z" fill="white"/>
</mask>
<g mask="url(#mask0_194_10815)">
<path d="M269.31 0H0V269.31H269.31V0Z" fill="white"/>
<mask id="mask1_194_10815" style="mask-type:luminance" maskUnits="userSpaceOnUse" x="131" y="66" width="66" height="21">
<path d="M196.5 66.25H131.77V86.88H196.5V66.25Z" fill="white"/>
</mask>
<g mask="url(#mask1_194_10815)">
<path d="M196.47 66.25H131.77V86.88H196.47V66.25Z" fill="#3A6AD6"/>
</g>
<mask id="mask2_194_10815" style="mask-type:luminance" maskUnits="userSpaceOnUse" x="98" y="100" width="99" height="22">
<path d="M196.5 100.31H98.99V121.23H196.5V100.31Z" fill="white"/>
</mask>
<g mask="url(#mask2_194_10815)">
<path d="M196.48 100.31H98.99V121.23H196.48V100.31Z" fill="#F19E1F"/>
</g>
<mask id="mask3_194_10815" style="mask-type:luminance" maskUnits="userSpaceOnUse" x="72" y="135" width="125" height="22">
<path d="M196.5 135H72.8V156.76H196.5V135Z" fill="white"/>
</mask>
<g mask="url(#mask3_194_10815)">
<path d="M196.54 135H72.8V156.76H196.54V135Z" fill="#3A6AD6"/>
</g>
<path d="M86.2899 188.5C87.9077 187.7 89.7172 187.3 91.6945 187.3V195.47H89.154C86.8531 195.47 85.1155 195.88 83.965 196.71C82.8146 197.54 82.2394 198.99 82.2394 201.06V212.74H73V187.57H82.2394V191.77C83.3179 190.39 84.6601 189.3 86.2899 188.5Z" fill="#3A6AD6"/>
<path d="M96.0326 193.31C97.207 191.36 98.8008 189.85 100.814 188.8C102.827 187.75 105.08 187.22 107.573 187.22C109.694 187.22 111.563 187.58 113.169 188.3C114.775 189.02 116.009 189.97 116.872 191.14V187.58H126.111V212.75H116.872V209.19C115.973 210.36 114.715 211.31 113.109 212.03C111.503 212.75 109.646 213.11 107.513 213.11C105.056 213.11 102.827 212.58 100.814 211.51C98.8008 210.44 97.195 208.92 96.0326 206.95C94.8582 204.98 94.271 202.7 94.271 200.12C94.283 197.53 94.8582 195.26 96.0326 193.31ZM114.955 195.61C113.672 194.5 112.115 193.94 110.281 193.94C108.448 193.94 106.89 194.49 105.608 195.59C104.325 196.69 103.69 198.2 103.69 200.12C103.69 202.04 104.325 203.57 105.608 204.7C106.89 205.83 108.448 206.39 110.281 206.39C112.115 206.39 113.672 205.83 114.955 204.72C116.237 203.61 116.872 202.09 116.872 200.16C116.872 198.24 116.237 196.72 114.955 195.61Z" fill="#3A6AD6"/>
<path d="M151.253 212.75L142.062 202.19V212.75H132.823V179.37H142.062V197.82L151.193 187.58H162.602L150.055 200.21L162.71 212.75H151.253Z" fill="#3A6AD6"/>
<path d="M196 187.58V212.75H186.761V209.32C185.826 210.43 184.556 211.33 182.95 212C181.344 212.68 179.57 213.01 177.629 213.01C175.316 213.01 173.279 212.58 171.517 211.72C169.756 210.86 168.378 209.62 167.407 208C166.436 206.38 165.945 204.47 165.945 202.27V187.56H175.137V201.23C175.137 202.91 175.664 204.22 176.706 205.15C177.749 206.08 179.151 206.55 180.925 206.55C182.722 206.55 184.148 206.08 185.191 205.15C186.233 204.22 186.761 202.91 186.761 201.23V187.56H196V187.58Z" fill="#3A6AD6"/>
</g>
</svg>
